# xmcd
#
# Track frame offsets: 
#        150
#        11042
#        21407
#        30215
#        60752
#        73835
#        84007
#        110465
#        128885
#        151895
#        168990
#        193145
#        210630
#        236002
#        249205
#
# Disc length: 3470 seconds
#
# Revision: 1
# Processed by: cddbd v1.5.2PL0 Copyright (c) Steve Scherf et al.
# Submitted via: ExactAudioCopyFreeDBPlugin 1.0
#
DISCID=b60d8c0f
DTITLE=The Yardbirds - Clapton's Cradle: The Early Yardbirds Recording
DTITLE=s
DYEAR=1963
DGENRE=Blues
TTITLE0=Boom Boom
TTITLE1=Honey In Your Hips (Studio)
TTITLE2=I'm Talking About You
TTITLE3=Smokestack Lightning
TTITLE4=You Can't Judge A Book By Its Cover
TTITLE5=Let It Rock
TTITLE6=I Wish You Would
TTITLE7=Who Do You Love
TTITLE8=23 Hours Too Long
TTITLE9=Pontiac Blues
TTITLE10=The River Rhine
TTITLE11=Mister Downchild
TTITLE12=Take It Easy Baby
TTITLE13=Do The Weston
TTITLE14=Honey In Your Hips (Live)
EXTD=
EXTT0=
EXTT1=
EXTT2=
EXTT3=
EXTT4=
EXTT5=
EXTT6=
EXTT7=
EXTT8=
EXTT9=
EXTT10=
EXTT11=
EXTT12=
EXTT13=
EXTT14=
PLAYORDER=
